<svg width="196" height="175" viewBox="0 0 196 175" fill="none" xmlns="http://www.w3.org/2000/svg">
<path d="M165.829 70.2949C164.846 76.1938 159.438 83.0759 152.065 87.0084C144.2 91.4326 136.826 90.941 134.368 86.5169C139.775 80.1264 143.708 73.2444 145.674 66.8539C146.657 63.4129 146.657 59.9719 146.166 56.5309C143.708 42.2753 125.52 39.8174 105.857 50.632L103.399 36.868L82.7529 48.1742L86.1939 65.8708C88.1602 64.3961 90.6181 63.9045 92.5844 63.4129C98.9748 62.9214 100.941 69.8034 97.0085 79.6348C95.5338 83.0759 93.5675 86.0253 91.1096 88.9747L95.0422 109.621V110.112C97.9917 123.876 116.18 126.334 135.843 115.52C154.031 104.213 167.795 84.5506 165.829 70.2949ZM76.3624 97.823C69.972 98.3146 68.0057 91.4326 71.9383 81.6011C73.9046 77.6685 76.3624 74.2275 78.8203 71.2781L74.8877 52.1067L34.0872 74.7191L45.8849 136.166L86.6855 113.553L83.2445 94.8736C80.7866 96.3483 78.3287 97.3315 76.3624 97.823Z" fill="#CC0033"/>
<path d="M5.96214 161.71V157.701H2.05257V161.71H0V152.17H2.05257V155.909H5.96279V152.17H8.01407V161.709H5.96279L5.96214 161.71ZM14.7998 161.925C11.9566 161.925 9.73035 159.932 9.73035 157.126C9.73035 154.228 11.9262 152.001 14.9592 152.001C17.8909 152.001 20.1313 153.916 20.1313 156.835C20.1313 159.862 17.8438 161.925 14.7998 161.925ZM14.916 153.876C13.3023 153.876 11.9127 155.011 11.9127 156.989C11.9127 159.045 13.3753 160.084 14.916 160.084C16.5555 160.084 17.9335 159.076 17.9335 157.004C17.9335 155 16.6297 153.876 14.916 153.876ZM27.001 161.87C24.1623 161.87 21.523 160.658 21.523 156.977C21.523 153.738 23.824 152.027 26.9449 152.027C28.5411 152.027 29.6119 152.462 30.0799 152.8L29.5086 154.662C29.0394 154.299 28.0273 153.839 26.8274 153.839C25.1427 153.839 23.7666 154.833 23.7666 156.977C23.7666 159.092 25.1563 160.185 27.2095 160.185C27.6465 160.185 28.3952 160.149 28.7037 159.931V157.202H30.695V160.984C30.0211 161.417 28.6734 161.87 27.001 161.87ZM32.7185 161.71V152.17H38.7549V153.892H34.7846V155.895H38.4173V157.632H34.7846V159.991H39.1215V161.71H32.7185ZM44.0877 161.879C42.2998 161.879 41.2709 161.333 40.5686 160.943L41.0095 158.896C41.784 159.499 43.1466 160.07 43.9399 160.07C44.8629 160.07 45.3915 159.666 45.3915 159.105C45.3915 158.531 45.0669 158.135 44.3795 157.928L43.0317 157.508C41.0521 156.891 40.8468 155.939 40.8468 154.677C40.8468 153.485 42.1074 152 44.1284 152C45.6517 152 46.3552 152.21 47.2066 152.77L46.7238 154.817C45.8008 154.034 45.0824 153.819 44.262 153.819C43.5132 153.819 42.973 154.227 42.973 154.636C42.973 155.151 43.2822 155.433 44.0257 155.669L45.2715 156.063C47.1485 156.649 47.5571 157.659 47.5571 158.998C47.5571 160.492 46.0499 161.879 44.0877 161.879ZM53.9646 161.87C51.4847 161.87 48.9964 160.632 48.9964 157.126C48.9964 154.158 50.7824 152.056 54.0814 152.056C55.8952 152.056 57.0667 152.838 57.0667 152.838L56.3799 154.715C55.6763 154.185 55.0031 153.916 53.9646 153.916C52.2477 153.916 51.1181 155.097 51.1181 156.917C51.1181 159.134 52.8202 159.945 54.2699 159.945C55.4136 159.945 56.0133 159.693 56.702 159.135L57.4055 160.887C56.3644 161.656 55.1922 161.87 53.9646 161.87ZM65.3447 161.71V157.701H61.4345V161.71H59.3832V152.17H61.4345V155.909H65.3447V152.17H67.396V161.709H65.3447V161.71ZM74.1818 161.925C71.3379 161.925 69.1129 159.932 69.1129 157.126C69.1129 154.228 71.3101 152.001 74.3425 152.001C77.271 152.001 79.5146 153.916 79.5146 156.835C79.5146 159.862 77.2309 161.925 74.1818 161.925ZM74.2999 153.876C72.6862 153.876 71.2953 155.011 71.2953 156.989C71.2953 159.045 72.7605 160.084 74.2999 160.084C75.9413 160.084 77.3161 159.076 77.3161 157.004C77.3161 155 76.0142 153.876 74.2999 153.876ZM85.9608 161.925C83.1189 161.925 80.8926 159.932 80.8926 157.126C80.8926 154.228 83.0905 152.001 86.119 152.001C89.0507 152.001 91.2936 153.916 91.2936 156.835C91.2936 159.862 89.0048 161.925 85.9608 161.925ZM86.0757 153.876C84.464 153.876 83.0724 155.011 83.0724 156.989C83.0724 159.045 84.5415 160.084 86.0757 160.084C87.7191 160.084 89.0978 159.076 89.0978 157.004C89.0978 155 87.7901 153.876 86.0757 153.876ZM93.0913 161.71V152.17H95.1451V159.946H99.4955V161.71H93.0913ZM113.295 161.836L110.424 158.077L109.811 158.064V161.789H107.758V152.276C107.758 152.276 109.501 152.15 110.699 152.15C113.077 152.15 114.202 153.227 114.202 155.082C114.202 156.504 113.31 157.436 112.609 157.769L115.524 161.411L113.295 161.836ZM110.775 153.874C110.448 153.876 110.121 153.895 109.795 153.93V156.452C109.795 156.452 110.398 156.522 110.775 156.522C111.67 156.522 112.139 155.946 112.139 155.131C112.139 154.423 111.626 153.874 110.775 153.874ZM120.884 162C118.042 162 115.813 160.014 115.813 157.207C115.813 154.307 118.013 152.079 121.048 152.079C123.974 152.079 126.215 153.998 126.215 156.914C126.215 159.942 123.933 162 120.884 162ZM120.997 153.956C119.388 153.956 117.995 155.089 117.995 157.067C117.995 159.128 119.458 160.169 120.997 160.169C122.639 160.169 124.02 159.154 124.02 157.078C124.02 155.081 122.716 153.956 120.997 153.956ZM132.135 154.111V161.788H130.081V154.138H127.258V152.26H134.933V154.111H132.135ZM141.185 154.111V161.788H139.139V154.138H136.31V152.26H143.987V154.111H141.185ZM145.483 161.789V152.247H151.516V153.971H147.546V155.976H151.18V157.712H147.546V160.067H151.885V161.789H145.483ZM159.502 161.836L156.63 158.077L156.017 158.064V161.789H153.963V152.276C153.963 152.276 155.71 152.15 156.906 152.15C159.282 152.15 160.407 153.227 160.407 155.082C160.407 156.504 159.516 157.436 158.816 157.769L161.729 161.411L159.502 161.836H159.502ZM156.984 153.874C156.658 153.874 156.279 153.899 155.997 153.93V156.452C155.997 156.452 156.601 156.522 156.984 156.522C157.877 156.522 158.343 155.946 158.343 155.131C158.343 154.423 157.833 153.874 156.984 153.874ZM166.196 161.959C164.714 161.959 163.035 161.753 163.035 161.753V152.26C163.035 152.26 164.851 152.079 166.315 152.079C170.254 152.079 171.793 154.096 171.793 156.623C171.793 159.379 170.33 161.959 166.196 161.959ZM166.548 153.874C166.025 153.874 165.112 153.943 165.112 153.943V160.096C165.377 160.182 165.904 160.263 166.653 160.263C168.411 160.263 169.654 158.692 169.654 156.895C169.654 154.911 168.011 153.874 166.548 153.874ZM179.651 161.819L178.622 159.421H175.135L174.111 161.789H171.971L176.178 152.26H177.948L181.846 161.8L179.651 161.819ZM176.94 154.757L175.66 157.895H178.108L176.94 154.757ZM193.716 161.818L192.352 156.298L189.714 161.8H188.249L185.682 156.298L184.453 161.8L182.458 161.787L184.646 152.402H186.341L189.128 158.738L192.159 152.26H193.652L196 161.788L193.716 161.819L193.716 161.818Z" fill="black"/>
</svg>
